# xmcd
#
# Track frame offsets:
#	150
#	18891
#	30856
#	52502
#	75562
#	97965
#	116679
#	135741
#	154415
#	175240
#	193971
#	211869
#	238482
#	258080
#	278786
#	297477
#
# Disc length: 4159 seconds
#
# Revision: 1
# Processed by: cddbd v1.5.1PL0 Copyright (c) Steve Scherf et al.
# Submitted via: audiograbber 1.82.02
#
DISCID=d7103d10
DTITLE=NILOY - NILOY
DYEAR=1988
DGENRE=Rock
TTITLE0=Shei Je Chole Gele
TTITLE1=Poth Cholechi Ami
TTITLE2=Shagor Deke Bole
TTITLE3=Ghum Bhangtei
TTITLE4=Ai Ami Tomar Shei Ochena
TTITLE5=Ridoyer Joto Batha
TTITLE6=Happy
TTITLE7=Du Cokhe Tomar
TTITLE8=Ami Mukti Peyechi
TTITLE9=Jokhon Dekhi
TTITLE10=Instumental
TTITLE11=Jokhon Nibir Kore
TTITLE12=Tumi Ashbe Bole
TTITLE13=Bibagi Rater Moto
TTITLE14=Aakash Koto Bishal
TTITLE15=Chere Gelo Aakashtake
EXTD=
EXTT0=
EXTT1=
EXTT2=
EXTT3=
EXTT4=
EXTT5=
EXTT6=
EXTT7=
EXTT8=
EXTT9=
EXTT10=
EXTT11=
EXTT12=
EXTT13=
EXTT14=
EXTT15=
PLAYORDER=
